<mxfile host="Electron" modified="2023-04-13T15:01:39.608Z" agent="Mozilla/5.0 (X11; Linux x86_64) AppleWebKit/537.36 (KHTML, like Gecko) draw.io/21.1.2 Chrome/106.0.5249.199 Electron/21.4.3 Safari/537.36" etag="_Vpe5tWDPvuvswXqhyWH" version="21.1.2" type="device" pages="2">
  <diagram name="Page-1" id="NF5aVm9OyPHT0jYLM7Tb">
    <mxGraphModel dx="1434" dy="1354" grid="1" gridSize="10" guides="1" tooltips="1" connect="1" arrows="1" fold="1" page="1" pageScale="1" pageWidth="850" pageHeight="1100" math="0" shadow="0">
      <root>
        <mxCell id="0" />
        <mxCell id="1" parent="0" />
        <mxCell id="wCHK9Kpb16z8uMHKOmz2-12" value="Ceph pool" style="rounded=0;whiteSpace=wrap;html=1;align=left;verticalAlign=top;fillColor=#dae8fc;strokeColor=#6c8ebf;" vertex="1" parent="1">
          <mxGeometry x="100" y="440" width="560" height="90" as="geometry" />
        </mxCell>
        <mxCell id="wCHK9Kpb16z8uMHKOmz2-1" value="OSD" style="rounded=0;whiteSpace=wrap;html=1;" vertex="1" parent="1">
          <mxGeometry x="100" y="600" width="80" height="40" as="geometry" />
        </mxCell>
        <mxCell id="wCHK9Kpb16z8uMHKOmz2-2" value="Client" style="rounded=0;whiteSpace=wrap;html=1;" vertex="1" parent="1">
          <mxGeometry x="160" y="80" width="380" height="40" as="geometry" />
        </mxCell>
        <mxCell id="wCHK9Kpb16z8uMHKOmz2-3" value="Data set" style="rounded=0;whiteSpace=wrap;html=1;" vertex="1" parent="1">
          <mxGeometry x="280" y="180" width="160" height="40" as="geometry" />
        </mxCell>
        <mxCell id="wCHK9Kpb16z8uMHKOmz2-4" value="CRUSH" style="rounded=0;whiteSpace=wrap;html=1;" vertex="1" parent="1">
          <mxGeometry x="260" y="280" width="200" height="40" as="geometry" />
        </mxCell>
        <mxCell id="wCHK9Kpb16z8uMHKOmz2-5" value="Object" style="rounded=0;whiteSpace=wrap;html=1;" vertex="1" parent="1">
          <mxGeometry x="100" y="360" width="80" height="40" as="geometry" />
        </mxCell>
        <mxCell id="wCHK9Kpb16z8uMHKOmz2-6" value="Object" style="rounded=0;whiteSpace=wrap;html=1;" vertex="1" parent="1">
          <mxGeometry x="220" y="360" width="80" height="40" as="geometry" />
        </mxCell>
        <mxCell id="wCHK9Kpb16z8uMHKOmz2-7" value="Object" style="rounded=0;whiteSpace=wrap;html=1;" vertex="1" parent="1">
          <mxGeometry x="340" y="360" width="80" height="40" as="geometry" />
        </mxCell>
        <mxCell id="wCHK9Kpb16z8uMHKOmz2-8" value="Object" style="rounded=0;whiteSpace=wrap;html=1;" vertex="1" parent="1">
          <mxGeometry x="460" y="360" width="80" height="40" as="geometry" />
        </mxCell>
        <mxCell id="wCHK9Kpb16z8uMHKOmz2-9" value="Object" style="rounded=0;whiteSpace=wrap;html=1;" vertex="1" parent="1">
          <mxGeometry x="580" y="360" width="80" height="40" as="geometry" />
        </mxCell>
        <mxCell id="wCHK9Kpb16z8uMHKOmz2-10" value="Placement Group" style="rounded=0;whiteSpace=wrap;html=1;" vertex="1" parent="1">
          <mxGeometry x="150" y="470" width="200" height="40" as="geometry" />
        </mxCell>
        <mxCell id="wCHK9Kpb16z8uMHKOmz2-11" value="Placement Group" style="rounded=0;whiteSpace=wrap;html=1;" vertex="1" parent="1">
          <mxGeometry x="425" y="470" width="200" height="40" as="geometry" />
        </mxCell>
        <mxCell id="wCHK9Kpb16z8uMHKOmz2-13" value="OSD" style="rounded=0;whiteSpace=wrap;html=1;" vertex="1" parent="1">
          <mxGeometry x="220" y="600" width="80" height="40" as="geometry" />
        </mxCell>
        <mxCell id="wCHK9Kpb16z8uMHKOmz2-14" value="OSD" style="rounded=0;whiteSpace=wrap;html=1;" vertex="1" parent="1">
          <mxGeometry x="340" y="600" width="80" height="40" as="geometry" />
        </mxCell>
        <mxCell id="wCHK9Kpb16z8uMHKOmz2-15" value="OSD" style="rounded=0;whiteSpace=wrap;html=1;" vertex="1" parent="1">
          <mxGeometry x="460" y="600" width="80" height="40" as="geometry" />
        </mxCell>
        <mxCell id="wCHK9Kpb16z8uMHKOmz2-16" value="OSD" style="rounded=0;whiteSpace=wrap;html=1;" vertex="1" parent="1">
          <mxGeometry x="580" y="600" width="80" height="40" as="geometry" />
        </mxCell>
      </root>
    </mxGraphModel>
  </diagram>
  <diagram name="Copy of Page-1" id="O3HIUJGh82nmYy8OFrLm">
    <mxGraphModel dx="1434" dy="1354" grid="1" gridSize="10" guides="1" tooltips="1" connect="1" arrows="1" fold="1" page="1" pageScale="1" pageWidth="850" pageHeight="1100" math="0" shadow="0">
      <root>
        <mxCell id="uAvEu7ZsMc8HHSNiS3dY-0" />
        <mxCell id="uAvEu7ZsMc8HHSNiS3dY-1" parent="uAvEu7ZsMc8HHSNiS3dY-0" />
        <mxCell id="uAvEu7ZsMc8HHSNiS3dY-2" value="Ceph pool" style="rounded=0;whiteSpace=wrap;html=1;align=left;verticalAlign=top;fillColor=#dae8fc;strokeColor=#6c8ebf;" vertex="1" parent="uAvEu7ZsMc8HHSNiS3dY-1">
          <mxGeometry x="100" y="440" width="560" height="90" as="geometry" />
        </mxCell>
        <mxCell id="uAvEu7ZsMc8HHSNiS3dY-3" value="MDS" style="rounded=0;whiteSpace=wrap;html=1;" vertex="1" parent="uAvEu7ZsMc8HHSNiS3dY-1">
          <mxGeometry x="100" y="600" width="60" height="40" as="geometry" />
        </mxCell>
        <mxCell id="uAvEu7ZsMc8HHSNiS3dY-4" value="Client" style="rounded=0;whiteSpace=wrap;html=1;" vertex="1" parent="uAvEu7ZsMc8HHSNiS3dY-1">
          <mxGeometry x="160" y="80" width="380" height="40" as="geometry" />
        </mxCell>
        <mxCell id="uAvEu7ZsMc8HHSNiS3dY-5" value="Data set" style="rounded=0;whiteSpace=wrap;html=1;" vertex="1" parent="uAvEu7ZsMc8HHSNiS3dY-1">
          <mxGeometry x="280" y="180" width="160" height="40" as="geometry" />
        </mxCell>
        <mxCell id="uAvEu7ZsMc8HHSNiS3dY-6" value="CRUSH" style="rounded=0;whiteSpace=wrap;html=1;" vertex="1" parent="uAvEu7ZsMc8HHSNiS3dY-1">
          <mxGeometry x="260" y="280" width="200" height="40" as="geometry" />
        </mxCell>
        <mxCell id="uAvEu7ZsMc8HHSNiS3dY-7" value="Object" style="rounded=0;whiteSpace=wrap;html=1;" vertex="1" parent="uAvEu7ZsMc8HHSNiS3dY-1">
          <mxGeometry x="100" y="360" width="80" height="40" as="geometry" />
        </mxCell>
        <mxCell id="uAvEu7ZsMc8HHSNiS3dY-8" value="Object" style="rounded=0;whiteSpace=wrap;html=1;" vertex="1" parent="uAvEu7ZsMc8HHSNiS3dY-1">
          <mxGeometry x="220" y="360" width="80" height="40" as="geometry" />
        </mxCell>
        <mxCell id="uAvEu7ZsMc8HHSNiS3dY-9" value="Object" style="rounded=0;whiteSpace=wrap;html=1;" vertex="1" parent="uAvEu7ZsMc8HHSNiS3dY-1">
          <mxGeometry x="340" y="360" width="80" height="40" as="geometry" />
        </mxCell>
        <mxCell id="uAvEu7ZsMc8HHSNiS3dY-10" value="Object" style="rounded=0;whiteSpace=wrap;html=1;" vertex="1" parent="uAvEu7ZsMc8HHSNiS3dY-1">
          <mxGeometry x="460" y="360" width="80" height="40" as="geometry" />
        </mxCell>
        <mxCell id="uAvEu7ZsMc8HHSNiS3dY-11" value="Object" style="rounded=0;whiteSpace=wrap;html=1;" vertex="1" parent="uAvEu7ZsMc8HHSNiS3dY-1">
          <mxGeometry x="580" y="360" width="80" height="40" as="geometry" />
        </mxCell>
        <mxCell id="uAvEu7ZsMc8HHSNiS3dY-12" value="Placement Group" style="rounded=0;whiteSpace=wrap;html=1;" vertex="1" parent="uAvEu7ZsMc8HHSNiS3dY-1">
          <mxGeometry x="150" y="470" width="200" height="40" as="geometry" />
        </mxCell>
        <mxCell id="uAvEu7ZsMc8HHSNiS3dY-13" value="Placement Group" style="rounded=0;whiteSpace=wrap;html=1;" vertex="1" parent="uAvEu7ZsMc8HHSNiS3dY-1">
          <mxGeometry x="425" y="470" width="200" height="40" as="geometry" />
        </mxCell>
        <mxCell id="53j-n12SUzUzq8KJRCam-0" value="MON" style="rounded=0;whiteSpace=wrap;html=1;" vertex="1" parent="uAvEu7ZsMc8HHSNiS3dY-1">
          <mxGeometry x="180" y="600" width="60" height="40" as="geometry" />
        </mxCell>
        <mxCell id="53j-n12SUzUzq8KJRCam-1" value="MON" style="rounded=0;whiteSpace=wrap;html=1;" vertex="1" parent="uAvEu7ZsMc8HHSNiS3dY-1">
          <mxGeometry x="260" y="600" width="60" height="40" as="geometry" />
        </mxCell>
        <mxCell id="53j-n12SUzUzq8KJRCam-2" value="OSD" style="rounded=0;whiteSpace=wrap;html=1;" vertex="1" parent="uAvEu7ZsMc8HHSNiS3dY-1">
          <mxGeometry x="360" y="600" width="60" height="40" as="geometry" />
        </mxCell>
        <mxCell id="53j-n12SUzUzq8KJRCam-3" value="OSD" style="rounded=0;whiteSpace=wrap;html=1;" vertex="1" parent="uAvEu7ZsMc8HHSNiS3dY-1">
          <mxGeometry x="440" y="600" width="60" height="40" as="geometry" />
        </mxCell>
        <mxCell id="53j-n12SUzUzq8KJRCam-6" value="OSD" style="rounded=0;whiteSpace=wrap;html=1;" vertex="1" parent="uAvEu7ZsMc8HHSNiS3dY-1">
          <mxGeometry x="600" y="600" width="60" height="40" as="geometry" />
        </mxCell>
        <mxCell id="53j-n12SUzUzq8KJRCam-7" value="OSD" style="rounded=0;whiteSpace=wrap;html=1;" vertex="1" parent="uAvEu7ZsMc8HHSNiS3dY-1">
          <mxGeometry x="520" y="600" width="60" height="40" as="geometry" />
        </mxCell>
        <mxCell id="53j-n12SUzUzq8KJRCam-8" value="MDS: Meta Data Server&lt;br&gt;MON: Monitor&lt;br&gt;OSD: Object Storage Daemon" style="text;html=1;strokeColor=none;fillColor=none;align=left;verticalAlign=middle;whiteSpace=wrap;rounded=0;" vertex="1" parent="uAvEu7ZsMc8HHSNiS3dY-1">
          <mxGeometry x="100" y="700" width="320" height="50" as="geometry" />
        </mxCell>
      </root>
    </mxGraphModel>
  </diagram>
</mxfile>
